{
    "asset" : {
        "generator" : "Khronos glTF Blender I/O v3.2.40",
        "version" : "2.0"
    },
    "scene" : 0,
    "scenes" : [
        {
            "name" : "Scene",
            "nodes" : [
                0
            ]
        }
    ],
    "nodes" : [
        {
            "mesh" : 0,
            "name" : "Icosphere.023",
            "scale" : [
                0.2494361400604248,
                0.2494361400604248,
                0.2494361400604248
            ],
            "translation" : [
                -0.46325671672821045,
                0.7176079154014587,
                -0.2396210879087448
            ]
        }
    ],
    "materials" : [
        {
            "doubleSided" : true,
            "name" : "Material",
            "pbrMetallicRoughness" : {
                "baseColorFactor" : [
                    0.9718313813209534,
                    1,
                    0.7907522320747375,
                    1
                ],
                "metallicFactor" : 0,
                "roughnessFactor" : 0.5
            }
        },
        {
            "doubleSided" : true,
            "name" : "Material.001",
            "pbrMetallicRoughness" : {
                "baseColorFactor" : [
                    0.03115650825202465,
                    0.3972192406654358,
                    0.01976075768470764,
                    1
                ],
                "metallicFactor" : 0,
                "roughnessFactor" : 0.5
            }
        }
    ],
    "meshes" : [
        {
            "name" : "Icosphere.023",
            "primitives" : [
                {
                    "attributes" : {
                        "POSITION" : 0,
                        "NORMAL" : 1,
                        "TEXCOORD_0" : 2
                    },
                    "indices" : 3,
                    "material" : 0
                },
                {
                    "attributes" : {
                        "POSITION" : 4,
                        "NORMAL" : 5,
                        "TEXCOORD_0" : 6
                    },
                    "indices" : 7,
                    "material" : 1
                }
            ]
        }
    ],
    "accessors" : [
        {
            "bufferView" : 0,
            "componentType" : 5126,
            "count" : 8008,
            "max" : [
                6.204844951629639,
                1.7479462623596191,
                5.380580425262451
            ],
            "min" : [
                -2.7131736278533936,
                -6.636377334594727,
                -3.141493797302246
            ],
            "type" : "VEC3"
        },
        {
            "bufferView" : 1,
            "componentType" : 5126,
            "count" : 8008,
            "type" : "VEC3"
        },
        {
            "bufferView" : 2,
            "componentType" : 5126,
            "count" : 8008,
            "type" : "VEC2"
        },
        {
            "bufferView" : 3,
            "componentType" : 5123,
            "count" : 8118,
            "type" : "SCALAR"
        },
        {
            "bufferView" : 4,
            "componentType" : 5126,
            "count" : 384,
            "max" : [
                6.7132368087768555,
                -1.1750562191009521,
                6.020167827606201
            ],
            "min" : [
                -3.191981554031372,
                -6.83994197845459,
                -4.219642639160156
            ],
            "type" : "VEC3"
        },
        {
            "bufferView" : 5,
            "componentType" : 5126,
            "count" : 384,
            "type" : "VEC3"
        },
        {
            "bufferView" : 6,
            "componentType" : 5126,
            "count" : 384,
            "type" : "VEC2"
        },
        {
            "bufferView" : 7,
            "componentType" : 5123,
            "count" : 570,
            "type" : "SCALAR"
        }
    ],
    "bufferViews" : [
        {
            "buffer" : 0,
            "byteLength" : 96096,
            "byteOffset" : 0
        },
        {
            "buffer" : 0,
            "byteLength" : 96096,
            "byteOffset" : 96096
        },
        {
            "buffer" : 0,
            "byteLength" : 64064,
            "byteOffset" : 192192
        },
        {
            "buffer" : 0,
            "byteLength" : 16236,
            "byteOffset" : 256256
        },
        {
            "buffer" : 0,
            "byteLength" : 4608,
            "byteOffset" : 272492
        },
        {
            "buffer" : 0,
            "byteLength" : 4608,
            "byteOffset" : 277100
        },
        {
            "buffer" : 0,
            "byteLength" : 3072,
            "byteOffset" : 281708
        },
        {
            "buffer" : 0,
            "byteLength" : 1140,
            "byteOffset" : 284780
        }
    ],
    "buffers" : [
        {
            "byteLength" : 285920,
            "uri" : "data:application/octet-stream;base64,"
        }
    ]
}
