{
    "asset" : {
        "generator" : "Khronos glTF Blender I/O v3.2.40",
        "version" : "2.0"
    },
    "scene" : 0,
    "scenes" : [
        {
            "name" : "Scene",
            "nodes" : [
                0,
                1,
                2,
                3,
                4,
                5
            ]
        }
    ],
    "nodes" : [
        {
            "mesh" : 0,
            "name" : "Plane",
            "scale" : [
                0.11529713869094849,
                0.11529713869094849,
                0.11529713869094849
            ],
            "translation" : [
                -0.7093455791473389,
                0,
                -0.16272012889385223
            ]
        },
        {
            "mesh" : 1,
            "name" : "Plane.001",
            "rotation" : [
                0,
                -0.514056384563446,
                0,
                0.8577564358711243
            ],
            "scale" : [
                0.11529713869094849,
                0.11529713869094849,
                0.11529713869094849
            ],
            "translation" : [
                1.3048732280731201,
                0,
                -0.6722884774208069
            ]
        },
        {
            "mesh" : 2,
            "name" : "Plane.002",
            "rotation" : [
                -0.8798424601554871,
                0,
                0.4752655327320099,
                2.077451632942484e-08
            ],
            "scale" : [
                0.11529713869094849,
                0.11529713869094849,
                0.11529713869094849
            ],
            "translation" : [
                0.7575357556343079,
                0,
                0.12118223309516907
            ]
        },
        {
            "mesh" : 3,
            "name" : "Plane.003",
            "rotation" : [
                0,
                -0.9061151146888733,
                0,
                0.423031210899353
            ],
            "scale" : [
                0.11529713869094849,
                0.11529713869094849,
                0.11529713869094849
            ],
            "translation" : [
                -0.32574519515037537,
                0,
                0.7070275545120239
            ]
        },
        {
            "mesh" : 4,
            "name" : "Plane.004",
            "rotation" : [
                0,
                0.16078060865402222,
                0,
                0.986990213394165
            ],
            "scale" : [
                0.09449954330921173,
                0.09449953585863113,
                0.09449954330921173
            ],
            "translation" : [
                0.39967745542526245,
                0,
                -0.6741875410079956
            ]
        },
        {
            "mesh" : 5,
            "name" : "Plane.005",
            "scale" : [
                0.03210936859250069,
                0.03210936859250069,
                0.03210936859250069
            ],
            "translation" : [
                -1.5154118537902832,
                0,
                0.45196494460105896
            ]
        }
    ],
    "materials" : [
        {
            "doubleSided" : true,
            "name" : "Material.006",
            "pbrMetallicRoughness" : {
                "baseColorFactor" : [
                    0.08376427739858627,
                    0.27543291449546814,
                    0.023369094356894493,
                    1
                ],
                "metallicFactor" : 0,
                "roughnessFactor" : 0.5
            }
        },
        {
            "doubleSided" : true,
            "name" : "Material.003",
            "pbrMetallicRoughness" : {
                "baseColorFactor" : [
                    0.1119321808218956,
                    0.30498719215393066,
                    0.043735112994909286,
                    1
                ],
                "metallicFactor" : 0,
                "roughnessFactor" : 0.5
            }
        },
        {
            "doubleSided" : true,
            "name" : "Material.004",
            "pbrMetallicRoughness" : {
                "baseColorFactor" : [
                    0.06194806843996048,
                    0.25305119156837463,
                    0.028598075732588768,
                    1
                ],
                "metallicFactor" : 0,
                "roughnessFactor" : 0.5
            }
        },
        {
            "doubleSided" : true,
            "name" : "Material.007",
            "pbrMetallicRoughness" : {
                "baseColorFactor" : [
                    0.2045758068561554,
                    0.33629482984542847,
                    0.07710776478052139,
                    1
                ],
                "metallicFactor" : 0,
                "roughnessFactor" : 0.5
            }
        },
        {
            "doubleSided" : true,
            "name" : "Material.005",
            "pbrMetallicRoughness" : {
                "baseColorFactor" : [
                    0.14284826815128326,
                    0.35594668984413147,
                    0.04290791600942612,
                    1
                ],
                "metallicFactor" : 0,
                "roughnessFactor" : 0.5
            }
        },
        {
            "doubleSided" : true,
            "name" : "stalk",
            "pbrMetallicRoughness" : {
                "baseColorFactor" : [
                    0.09222055971622467,
                    0.2870405614376068,
                    0.02596975862979889,
                    1
                ],
                "metallicFactor" : 0,
                "roughnessFactor" : 0.5
            }
        }
    ],
    "meshes" : [
        {
            "name" : "Plane.003",
            "primitives" : [
                {
                    "attributes" : {
                        "POSITION" : 0,
                        "NORMAL" : 1,
                        "TEXCOORD_0" : 2
                    },
                    "indices" : 3,
                    "material" : 0
                }
            ]
        },
        {
            "name" : "Plane.001",
            "primitives" : [
                {
                    "attributes" : {
                        "POSITION" : 4,
                        "NORMAL" : 5,
                        "TEXCOORD_0" : 6
                    },
                    "indices" : 3,
                    "material" : 1
                }
            ]
        },
        {
            "name" : "Plane.002",
            "primitives" : [
                {
                    "attributes" : {
                        "POSITION" : 7,
                        "NORMAL" : 8,
                        "TEXCOORD_0" : 9
                    },
                    "indices" : 10,
                    "material" : 2
                }
            ]
        },
        {
            "name" : "Plane.004",
            "primitives" : [
                {
                    "attributes" : {
                        "POSITION" : 11,
                        "NORMAL" : 12,
                        "TEXCOORD_0" : 13
                    },
                    "indices" : 14,
                    "material" : 3
                }
            ]
        },
        {
            "name" : "Plane.005",
            "primitives" : [
                {
                    "attributes" : {
                        "POSITION" : 15,
                        "NORMAL" : 16,
                        "TEXCOORD_0" : 17
                    },
                    "indices" : 18,
                    "material" : 4
                }
            ]
        },
        {
            "name" : "Plane",
            "primitives" : [
                {
                    "attributes" : {
                        "POSITION" : 19,
                        "NORMAL" : 20,
                        "TEXCOORD_0" : 21
                    },
                    "indices" : 22,
                    "material" : 5
                }
            ]
        }
    ],
    "accessors" : [
        {
            "bufferView" : 0,
            "componentType" : 5126,
            "count" : 476,
            "max" : [
                5.440332889556885,
                0,
                4.241376876831055
            ],
            "min" : [
                -5.547269344329834,
                0,
                -6.510616779327393
            ],
            "type" : "VEC3"
        },
        {
            "bufferView" : 1,
            "componentType" : 5126,
            "count" : 476,
            "type" : "VEC3"
        },
        {
            "bufferView" : 2,
            "componentType" : 5126,
            "count" : 476,
            "type" : "VEC2"
        },
        {
            "bufferView" : 3,
            "componentType" : 5123,
            "count" : 1620,
            "type" : "SCALAR"
        },
        {
            "bufferView" : 4,
            "componentType" : 5126,
            "count" : 476,
            "max" : [
                5.440332889556885,
                0,
                4.423322677612305
            ],
            "min" : [
                -5.547269344329834,
                0,
                -6.510616779327393
            ],
            "type" : "VEC3"
        },
        {
            "bufferView" : 5,
            "componentType" : 5126,
            "count" : 476,
            "type" : "VEC3"
        },
        {
            "bufferView" : 6,
            "componentType" : 5126,
            "count" : 476,
            "type" : "VEC2"
        },
        {
            "bufferView" : 7,
            "componentType" : 5126,
            "count" : 488,
            "max" : [
                5.440332889556885,
                0,
                4.241376876831055
            ],
            "min" : [
                -5.547269344329834,
                0,
                -6.510616779327393
            ],
            "type" : "VEC3"
        },
        {
            "bufferView" : 8,
            "componentType" : 5126,
            "count" : 488,
            "type" : "VEC3"
        },
        {
            "bufferView" : 9,
            "componentType" : 5126,
            "count" : 488,
            "type" : "VEC2"
        },
        {
            "bufferView" : 10,
            "componentType" : 5123,
            "count" : 1632,
            "type" : "SCALAR"
        },
        {
            "bufferView" : 11,
            "componentType" : 5126,
            "count" : 482,
            "max" : [
                5.440332889556885,
                0,
                4.241376876831055
            ],
            "min" : [
                -5.547269344329834,
                0,
                -6.510616779327393
            ],
            "type" : "VEC3"
        },
        {
            "bufferView" : 12,
            "componentType" : 5126,
            "count" : 482,
            "type" : "VEC3"
        },
        {
            "bufferView" : 13,
            "componentType" : 5126,
            "count" : 482,
            "type" : "VEC2"
        },
        {
            "bufferView" : 14,
            "componentType" : 5123,
            "count" : 1632,
            "type" : "SCALAR"
        },
        {
            "bufferView" : 15,
            "componentType" : 5126,
            "count" : 482,
            "max" : [
                5.440332889556885,
                0,
                4.241376876831055
            ],
            "min" : [
                -5.547269344329834,
                0,
                -6.510616779327393
            ],
            "type" : "VEC3"
        },
        {
            "bufferView" : 16,
            "componentType" : 5126,
            "count" : 482,
            "type" : "VEC3"
        },
        {
            "bufferView" : 17,
            "componentType" : 5126,
            "count" : 482,
            "type" : "VEC2"
        },
        {
            "bufferView" : 18,
            "componentType" : 5123,
            "count" : 1632,
            "type" : "SCALAR"
        },
        {
            "bufferView" : 19,
            "componentType" : 5126,
            "count" : 97,
            "max" : [
                73.9435043334961,
                0,
                1.3644402027130127
            ],
            "min" : [
                -1.8556420803070068,
                0,
                -28.792522430419922
            ],
            "type" : "VEC3"
        },
        {
            "bufferView" : 20,
            "componentType" : 5126,
            "count" : 97,
            "type" : "VEC3"
        },
        {
            "bufferView" : 21,
            "componentType" : 5126,
            "count" : 97,
            "type" : "VEC2"
        },
        {
            "bufferView" : 22,
            "componentType" : 5123,
            "count" : 231,
            "type" : "SCALAR"
        }
    ],
    "bufferViews" : [
        {
            "buffer" : 0,
            "byteLength" : 5712,
            "byteOffset" : 0
        },
        {
            "buffer" : 0,
            "byteLength" : 5712,
            "byteOffset" : 5712
        },
        {
            "buffer" : 0,
            "byteLength" : 3808,
            "byteOffset" : 11424
        },
        {
            "buffer" : 0,
            "byteLength" : 3240,
            "byteOffset" : 15232
        },
        {
            "buffer" : 0,
            "byteLength" : 5712,
            "byteOffset" : 18472
        },
        {
            "buffer" : 0,
            "byteLength" : 5712,
            "byteOffset" : 24184
        },
        {
            "buffer" : 0,
            "byteLength" : 3808,
            "byteOffset" : 29896
        },
        {
            "buffer" : 0,
            "byteLength" : 5856,
            "byteOffset" : 33704
        },
        {
            "buffer" : 0,
            "byteLength" : 5856,
            "byteOffset" : 39560
        },
        {
            "buffer" : 0,
            "byteLength" : 3904,
            "byteOffset" : 45416
        },
        {
            "buffer" : 0,
            "byteLength" : 3264,
            "byteOffset" : 49320
        },
        {
            "buffer" : 0,
            "byteLength" : 5784,
            "byteOffset" : 52584
        },
        {
            "buffer" : 0,
            "byteLength" : 5784,
            "byteOffset" : 58368
        },
        {
            "buffer" : 0,
            "byteLength" : 3856,
            "byteOffset" : 64152
        },
        {
            "buffer" : 0,
            "byteLength" : 3264,
            "byteOffset" : 68008
        },
        {
            "buffer" : 0,
            "byteLength" : 5784,
            "byteOffset" : 71272
        },
        {
            "buffer" : 0,
            "byteLength" : 5784,
            "byteOffset" : 77056
        },
        {
            "buffer" : 0,
            "byteLength" : 3856,
            "byteOffset" : 82840
        },
        {
            "buffer" : 0,
            "byteLength" : 3264,
            "byteOffset" : 86696
        },
        {
            "buffer" : 0,
            "byteLength" : 1164,
            "byteOffset" : 89960
        },
        {
            "buffer" : 0,
            "byteLength" : 1164,
            "byteOffset" : 91124
        },
        {
            "buffer" : 0,
            "byteLength" : 776,
            "byteOffset" : 92288
        },
        {
            "buffer" : 0,
            "byteLength" : 462,
            "byteOffset" : 93064
        }
    ],
    "buffers" : [
        {
            "byteLength" : 93528,
            "uri" : "data:application/octet-stream;base64,"
        }
    ]
}
