{
    "asset" : {
        "generator" : "Khronos glTF Blender I/O v3.2.40",
        "version" : "2.0"
    },
    "scene" : 0,
    "scenes" : [
        {
            "name" : "Scene",
            "nodes" : [
                0,
                1,
                2,
                3,
                4
            ]
        }
    ],
    "nodes" : [
        {
            "mesh" : 0,
            "name" : "Cylinder.002",
            "rotation" : [
                -0.000986489001661539,
                0.0006213865708559752,
                -0.8870102167129517,
                0.46174830198287964
            ]
        },
        {
            "mesh" : 1,
            "name" : "Torus.001",
            "rotation" : [
                0.7063944935798645,
                -0.0004158965894021094,
                0.0004158825322519988,
                0.7078180909156799
            ],
            "translation" : [
                0,
                0,
                -4.86799945065286e-05
            ]
        },
        {
            "mesh" : 2,
            "name" : "Circle",
            "rotation" : [
                0.7071068286895752,
                0,
                0,
                0.7071068286895752
            ],
            "translation" : [
                0,
                0,
                0.032388824969530106
            ]
        },
        {
            "mesh" : 3,
            "name" : "Cylinder.004"
        },
        {
            "mesh" : 4,
            "name" : "tranform_orient",
            "rotation" : [
                0.6825336813926697,
                0.18479140102863312,
                0.1847914159297943,
                0.6825335621833801
            ],
            "translation" : [
                0,
                0,
                -0.00016100273933261633
            ]
        }
    ],
    "animations" : [
        {
            "channels" : [
                {
                    "sampler" : 0,
                    "target" : {
                        "node" : 0,
                        "path" : "translation"
                    }
                },
                {
                    "sampler" : 1,
                    "target" : {
                        "node" : 0,
                        "path" : "rotation"
                    }
                },
                {
                    "sampler" : 2,
                    "target" : {
                        "node" : 0,
                        "path" : "scale"
                    }
                }
            ],
            "name" : "Cylinder.002Action.003",
            "samplers" : [
                {
                    "input" : 28,
                    "interpolation" : "STEP",
                    "output" : 29
                },
                {
                    "input" : 30,
                    "interpolation" : "LINEAR",
                    "output" : 31
                },
                {
                    "input" : 28,
                    "interpolation" : "STEP",
                    "output" : 32
                }
            ]
        }
    ],
    "materials" : [
        {
            "doubleSided" : true,
            "name" : "Material",
            "pbrMetallicRoughness" : {
                "baseColorFactor" : [
                    0,
                    0,
                    0,
                    1
                ],
                "metallicFactor" : 0,
                "roughnessFactor" : 0.4000000059604645
            }
        },
        {
            "doubleSided" : true,
            "name" : "Material.001",
            "pbrMetallicRoughness" : {
                "baseColorFactor" : [
                    0.800000011920929,
                    0.800000011920929,
                    0.800000011920929,
                    1
                ],
                "roughnessFactor" : 0.20454546809196472
            }
        },
        {
            "doubleSided" : true,
            "name" : "Material.002",
            "pbrMetallicRoughness" : {
                "baseColorFactor" : [
                    0.6024534702301025,
                    0.6024534702301025,
                    0.6024534702301025,
                    1
                ],
                "metallicFactor" : 0,
                "roughnessFactor" : 0.5
            }
        }
    ],
    "meshes" : [
        {
            "name" : "Cylinder.003",
            "primitives" : [
                {
                    "attributes" : {
                        "POSITION" : 0,
                        "NORMAL" : 1,
                        "TEXCOORD_0" : 2
                    },
                    "indices" : 3,
                    "material" : 0
                }
            ]
        },
        {
            "name" : "Torus.001",
            "primitives" : [
                {
                    "attributes" : {
                        "POSITION" : 4,
                        "NORMAL" : 5,
                        "TEXCOORD_0" : 6
                    },
                    "indices" : 7,
                    "material" : 1
                },
                {
                    "attributes" : {
                        "POSITION" : 8,
                        "NORMAL" : 9,
                        "TEXCOORD_0" : 10
                    },
                    "indices" : 11,
                    "material" : 0
                },
                {
                    "attributes" : {
                        "POSITION" : 12,
                        "NORMAL" : 13,
                        "TEXCOORD_0" : 14
                    },
                    "indices" : 15,
                    "material" : 2
                }
            ]
        },
        {
            "name" : "Circle",
            "primitives" : [
                {
                    "attributes" : {
                        "POSITION" : 16,
                        "NORMAL" : 17,
                        "TEXCOORD_0" : 18
                    },
                    "indices" : 19,
                    "material" : 2
                }
            ]
        },
        {
            "name" : "Cylinder",
            "primitives" : [
                {
                    "attributes" : {
                        "POSITION" : 20,
                        "NORMAL" : 21,
                        "TEXCOORD_0" : 22
                    },
                    "indices" : 23,
                    "material" : 2
                }
            ]
        },
        {
            "name" : "Torus.002",
            "primitives" : [
                {
                    "attributes" : {
                        "POSITION" : 24,
                        "NORMAL" : 25,
                        "TEXCOORD_0" : 26
                    },
                    "indices" : 27,
                    "material" : 0
                }
            ]
        }
    ],
    "accessors" : [
        {
            "bufferView" : 0,
            "componentType" : 5126,
            "count" : 972,
            "max" : [
                0.12309639155864716,
                0.12052902579307556,
                0.020507261157035828
            ],
            "min" : [
                -0.093229278922081,
                -0.12047263234853745,
                -0.023274192586541176
            ],
            "type" : "VEC3"
        },
        {
            "bufferView" : 1,
            "componentType" : 5126,
            "count" : 972,
            "type" : "VEC3"
        },
        {
            "bufferView" : 2,
            "componentType" : 5126,
            "count" : 972,
            "type" : "VEC2"
        },
        {
            "bufferView" : 3,
            "componentType" : 5123,
            "count" : 5508,
            "type" : "SCALAR"
        },
        {
            "bufferView" : 4,
            "componentType" : 5126,
            "count" : 6342,
            "max" : [
                0.1210000067949295,
                0.031110279262065887,
                0.12478641420602798
            ],
            "min" : [
                -0.12099999189376831,
                -0.03126794099807739,
                -0.12478642165660858
            ],
            "type" : "VEC3"
        },
        {
            "bufferView" : 5,
            "componentType" : 5126,
            "count" : 6342,
            "type" : "VEC3"
        },
        {
            "bufferView" : 6,
            "componentType" : 5126,
            "count" : 6342,
            "type" : "VEC2"
        },
        {
            "bufferView" : 7,
            "componentType" : 5123,
            "count" : 31536,
            "type" : "SCALAR"
        },
        {
            "bufferView" : 8,
            "componentType" : 5126,
            "count" : 5233,
            "max" : [
                0.13493753969669342,
                0.033426158130168915,
                0.13464559614658356
            ],
            "min" : [
                -0.13493753969669342,
                -0.06970003992319107,
                -0.13464559614658356
            ],
            "type" : "VEC3"
        },
        {
            "bufferView" : 9,
            "componentType" : 5126,
            "count" : 5233,
            "type" : "VEC3"
        },
        {
            "bufferView" : 10,
            "componentType" : 5126,
            "count" : 5233,
            "type" : "VEC2"
        },
        {
            "bufferView" : 11,
            "componentType" : 5123,
            "count" : 24654,
            "type" : "SCALAR"
        },
        {
            "bufferView" : 12,
            "componentType" : 5126,
            "count" : 41,
            "max" : [
                0.01916365884244442,
                -0.054077304899692535,
                -0.02871507778763771
            ],
            "min" : [
                -0.012191880494356155,
                -0.06629493832588196,
                -0.03445064648985863
            ],
            "type" : "VEC3"
        },
        {
            "bufferView" : 13,
            "componentType" : 5126,
            "count" : 41,
            "type" : "VEC3"
        },
        {
            "bufferView" : 14,
            "componentType" : 5126,
            "count" : 41,
            "type" : "VEC2"
        },
        {
            "bufferView" : 15,
            "componentType" : 5123,
            "count" : 162,
            "type" : "SCALAR"
        },
        {
            "bufferView" : 16,
            "componentType" : 5126,
            "count" : 967,
            "max" : [
                0.1472492665052414,
                0.00048506996245123446,
                0.15476632118225098
            ],
            "min" : [
                -0.13888558745384216,
                -0.06578091531991959,
                -0.0965043306350708
            ],
            "type" : "VEC3"
        },
        {
            "bufferView" : 17,
            "componentType" : 5126,
            "count" : 967,
            "type" : "VEC3"
        },
        {
            "bufferView" : 18,
            "componentType" : 5126,
            "count" : 967,
            "type" : "VEC2"
        },
        {
            "bufferView" : 19,
            "componentType" : 5123,
            "count" : 5736,
            "type" : "SCALAR"
        },
        {
            "bufferView" : 20,
            "componentType" : 5126,
            "count" : 307,
            "max" : [
                0.08980276435613632,
                -0.15528230369091034,
                0.08980276435613632
            ],
            "min" : [
                -0.08980276435613632,
                -0.17306555807590485,
                -0.08980276435613632
            ],
            "type" : "VEC3"
        },
        {
            "bufferView" : 21,
            "componentType" : 5126,
            "count" : 307,
            "type" : "VEC3"
        },
        {
            "bufferView" : 22,
            "componentType" : 5126,
            "count" : 307,
            "type" : "VEC2"
        },
        {
            "bufferView" : 23,
            "componentType" : 5123,
            "count" : 1560,
            "type" : "SCALAR"
        },
        {
            "bufferView" : 24,
            "componentType" : 5126,
            "count" : 28,
            "max" : [
                0.13838304579257965,
                0.007088478188961744,
                0.007730433717370033
            ],
            "min" : [
                -0.13838301599025726,
                -0.007088471669703722,
                -0.007730429992079735
            ],
            "type" : "VEC3"
        },
        {
            "bufferView" : 25,
            "componentType" : 5126,
            "count" : 28,
            "type" : "VEC3"
        },
        {
            "bufferView" : 26,
            "componentType" : 5126,
            "count" : 28,
            "type" : "VEC2"
        },
        {
            "bufferView" : 27,
            "componentType" : 5123,
            "count" : 84,
            "type" : "SCALAR"
        },
        {
            "bufferView" : 28,
            "componentType" : 5126,
            "count" : 1,
            "max" : [
                0
            ],
            "min" : [
                0
            ],
            "type" : "SCALAR"
        },
        {
            "bufferView" : 29,
            "componentType" : 5126,
            "count" : 1,
            "type" : "VEC3"
        },
        {
            "bufferView" : 30,
            "componentType" : 5126,
            "count" : 41,
            "max" : [
                1.6666666666666667
            ],
            "min" : [
                0
            ],
            "type" : "SCALAR"
        },
        {
            "bufferView" : 31,
            "componentType" : 5126,
            "count" : 41,
            "type" : "VEC4"
        },
        {
            "bufferView" : 32,
            "componentType" : 5126,
            "count" : 1,
            "type" : "VEC3"
        }
    ],
    "bufferViews" : [
        {
            "buffer" : 0,
            "byteLength" : 11664,
            "byteOffset" : 0
        },
        {
            "buffer" : 0,
            "byteLength" : 11664,
            "byteOffset" : 11664
        },
        {
            "buffer" : 0,
            "byteLength" : 7776,
            "byteOffset" : 23328
        },
        {
            "buffer" : 0,
            "byteLength" : 11016,
            "byteOffset" : 31104
        },
        {
            "buffer" : 0,
            "byteLength" : 76104,
            "byteOffset" : 42120
        },
        {
            "buffer" : 0,
            "byteLength" : 76104,
            "byteOffset" : 118224
        },
        {
            "buffer" : 0,
            "byteLength" : 50736,
            "byteOffset" : 194328
        },
        {
            "buffer" : 0,
            "byteLength" : 63072,
            "byteOffset" : 245064
        },
        {
            "buffer" : 0,
            "byteLength" : 62796,
            "byteOffset" : 308136
        },
        {
            "buffer" : 0,
            "byteLength" : 62796,
            "byteOffset" : 370932
        },
        {
            "buffer" : 0,
            "byteLength" : 41864,
            "byteOffset" : 433728
        },
        {
            "buffer" : 0,
            "byteLength" : 49308,
            "byteOffset" : 475592
        },
        {
            "buffer" : 0,
            "byteLength" : 492,
            "byteOffset" : 524900
        },
        {
            "buffer" : 0,
            "byteLength" : 492,
            "byteOffset" : 525392
        },
        {
            "buffer" : 0,
            "byteLength" : 328,
            "byteOffset" : 525884
        },
        {
            "buffer" : 0,
            "byteLength" : 324,
            "byteOffset" : 526212
        },
        {
            "buffer" : 0,
            "byteLength" : 11604,
            "byteOffset" : 526536
        },
        {
            "buffer" : 0,
            "byteLength" : 11604,
            "byteOffset" : 538140
        },
        {
            "buffer" : 0,
            "byteLength" : 7736,
            "byteOffset" : 549744
        },
        {
            "buffer" : 0,
            "byteLength" : 11472,
            "byteOffset" : 557480
        },
        {
            "buffer" : 0,
            "byteLength" : 3684,
            "byteOffset" : 568952
        },
        {
            "buffer" : 0,
            "byteLength" : 3684,
            "byteOffset" : 572636
        },
        {
            "buffer" : 0,
            "byteLength" : 2456,
            "byteOffset" : 576320
        },
        {
            "buffer" : 0,
            "byteLength" : 3120,
            "byteOffset" : 578776
        },
        {
            "buffer" : 0,
            "byteLength" : 336,
            "byteOffset" : 581896
        },
        {
            "buffer" : 0,
            "byteLength" : 336,
            "byteOffset" : 582232
        },
        {
            "buffer" : 0,
            "byteLength" : 224,
            "byteOffset" : 582568
        },
        {
            "buffer" : 0,
            "byteLength" : 168,
            "byteOffset" : 582792
        },
        {
            "buffer" : 0,
            "byteLength" : 4,
            "byteOffset" : 582960
        },
        {
            "buffer" : 0,
            "byteLength" : 12,
            "byteOffset" : 582964
        },
        {
            "buffer" : 0,
            "byteLength" : 164,
            "byteOffset" : 582976
        },
        {
            "buffer" : 0,
            "byteLength" : 656,
            "byteOffset" : 583140
        },
        {
            "buffer" : 0,
            "byteLength" : 12,
            "byteOffset" : 583796
        }
    ],
    "buffers" : [
        {
            "byteLength" : 583808,
            "uri" : "data:application/octet-stream;base64,"
        }
    ]
}
